<?xml version="1.0" encoding="UTF-8"?>
<!DOCTYPE svg PUBLIC "-//W3C//DTD SVG 1.1//EN" "http://www.w3.org/Graphics/SVG/1.1/DTD/svg11.dtd">
<svg xmlns="http://www.w3.org/2000/svg" version="1.1" width="100px" height="100px" style="shape-rendering:geometricPrecision; text-rendering:geometricPrecision; image-rendering:optimizeQuality; fill-rule:evenodd; clip-rule:evenodd" xmlns:xlink="http://www.w3.org/1999/xlink">
<g><path style="opacity:1" fill="#010102" d="M 23.5,7.5 C 40.8365,7.33339 58.1699,7.50006 75.5,8C 84.5154,9.42438 90.0154,14.5911 92,23.5C 92.6667,41.8333 92.6667,60.1667 92,78.5C 89.1631,87.6723 82.9965,92.8389 73.5,94C 57.5,94.6667 41.5,94.6667 25.5,94C 16.0174,92.855 9.85072,87.6883 7,78.5C 6.33333,60.1667 6.33333,41.8333 7,23.5C 9.7863,15.2114 15.2863,9.87806 23.5,7.5 Z"/></g>
<g><path style="opacity:1" fill="#0788f1" d="M 76.5,10.5 C 81.6627,11.662 85.3294,14.662 87.5,19.5C 83.837,18.8875 80.1703,18.7208 76.5,19C 77.0585,19.7247 77.3918,20.5581 77.5,21.5C 76.1667,23.1667 74.8333,24.8333 73.5,26.5C 73.8178,27.6473 74.4844,28.4806 75.5,29C 74.8333,29.3333 74.1667,29.6667 73.5,30C 74.646,30.6449 75.646,31.4783 76.5,32.5C 77.451,31.6744 78.451,31.5078 79.5,32C 78.3595,32.7412 78.3595,33.5745 79.5,34.5C 76.3333,35.2057 72.9999,36.3723 69.5,38C 71.4406,38.7429 73.2739,38.5762 75,37.5C 77.8707,39.5504 77.7041,41.5504 74.5,43.5C 74.5,42.1667 74.5,40.8333 74.5,39.5C 72.8333,39.5 71.1667,39.5 69.5,39.5C 69.5,46.5 69.5,53.5 69.5,60.5C 69.4257,62.4109 68.4257,63.5776 66.5,64C 63.6529,64.9439 61.1529,64.4439 59,62.5C 58.5003,55.1742 58.3337,47.8409 58.5,40.5C 60.337,40.3605 60.6704,39.6939 59.5,38.5C 57.4841,39.7059 55.4841,39.7059 53.5,38.5C 54.325,37.6143 55.325,37.281 56.5,37.5C 56.6641,34.8127 56.4974,32.146 56,29.5C 54.7834,31.5202 54.6167,33.5202 55.5,35.5C 52.9135,36.48 50.2469,36.8134 47.5,36.5C 47.2792,31.9385 48.7792,31.2718 52,34.5C 51.7097,31.5865 51.5431,28.5865 51.5,25.5C 52.8333,25.5 54.1667,25.5 55.5,25.5C 55.3185,22.8049 54.3185,20.4716 52.5,18.5C 53.5,18.5 54.5,18.5 55.5,18.5C 55.5,17.5 55.5,16.5 55.5,15.5C 54.448,15.6495 53.448,15.4828 52.5,15C 53.8333,14.6667 55.1667,14.3333 56.5,14C 54.7148,12.8372 52.7148,12.1705 50.5,12C 59.1202,10.748 67.7868,10.248 76.5,10.5 Z"/></g>
<g><path style="opacity:1" fill="#168ef0" d="M 76.5,10.5 C 67.7868,10.248 59.1202,10.748 50.5,12C 52.7148,12.1705 54.7148,12.8372 56.5,14C 55.1667,14.3333 53.8333,14.6667 52.5,15C 53.448,15.4828 54.448,15.6495 55.5,15.5C 55.5,16.5 55.5,17.5 55.5,18.5C 54.5,18.5 53.5,18.5 52.5,18.5C 50.1205,17.4331 49.1205,18.4331 49.5,21.5C 47.712,21.2148 46.0453,21.5481 44.5,22.5C 43.9234,24.5499 42.5901,25.5499 40.5,25.5C 40.6567,26.8734 40.49,28.2068 40,29.5C 36.2515,30.6763 34.9182,33.0096 36,36.5C 35.6667,36.8333 35.3333,37.1667 35,37.5C 34.7679,36.2625 34.2679,35.2625 33.5,34.5C 36.8113,28.517 35.8113,23.3503 30.5,19C 23.4596,15.9307 17.793,17.4307 13.5,23.5C 11.78,25.6581 10.9467,28.3248 11,31.5C 10.502,28.5184 10.3354,25.5184 10.5,22.5C 12.2434,16.2549 16.2434,12.0883 22.5,10C 40.6714,9.17132 58.6714,9.33799 76.5,10.5 Z"/></g>
<g><path style="opacity:1" fill="#128af0" d="M 52.5,18.5 C 54.3185,20.4716 55.3185,22.8049 55.5,25.5C 54.1667,25.5 52.8333,25.5 51.5,25.5C 51.5431,28.5865 51.7097,31.5865 52,34.5C 48.7792,31.2718 47.2792,31.9385 47.5,36.5C 50.2469,36.8134 52.9135,36.48 55.5,35.5C 54.6167,33.5202 54.7834,31.5202 56,29.5C 56.4974,32.146 56.6641,34.8127 56.5,37.5C 55.325,37.281 54.325,37.6143 53.5,38.5C 55.4841,39.7059 57.4841,39.7059 59.5,38.5C 60.6704,39.6939 60.337,40.3605 58.5,40.5C 56.5853,40.2155 54.9187,40.5489 53.5,41.5C 52.6739,46.3165 52.1739,51.3165 52,56.5C 51.0977,58.9269 50.2644,61.2603 49.5,63.5C 50.6481,58.561 48.9814,55.061 44.5,53C 41.7679,52.587 39.1013,51.9203 36.5,51C 33.8333,48.6667 33.8333,46.3333 36.5,44C 39.9963,43.3047 43.3297,43.8047 46.5,45.5C 47.2868,44.7579 47.9535,43.9246 48.5,43C 43.8077,39.0665 38.8077,38.5665 33.5,41.5C 33.3059,39.0882 31.9726,38.0882 29.5,38.5C 31.1392,37.5275 32.4726,36.1942 33.5,34.5C 34.2679,35.2625 34.7679,36.2625 35,37.5C 35.3333,37.1667 35.6667,36.8333 36,36.5C 34.9182,33.0096 36.2515,30.6763 40,29.5C 40.49,28.2068 40.6567,26.8734 40.5,25.5C 42.5901,25.5499 43.9234,24.5499 44.5,22.5C 46.0453,21.5481 47.712,21.2148 49.5,21.5C 49.1205,18.4331 50.1205,17.4331 52.5,18.5 Z"/></g>
<g><path style="opacity:1" fill="#0387f1" d="M 87.5,19.5 C 88.2679,20.2625 88.7679,21.2625 89,22.5C 89.807,40.877 89.6403,59.2103 88.5,77.5C 84.2909,73.5634 79.2909,71.5634 73.5,71.5C 72.925,69.5887 71.925,67.922 70.5,66.5C 71.8897,65.1007 72.8897,63.4341 73.5,61.5C 74.4896,55.69 74.8229,49.69 74.5,43.5C 77.7041,41.5504 77.8707,39.5504 75,37.5C 73.2739,38.5762 71.4406,38.7429 69.5,38C 72.9999,36.3723 76.3333,35.2057 79.5,34.5C 78.3595,33.5745 78.3595,32.7412 79.5,32C 78.451,31.5078 77.451,31.6744 76.5,32.5C 75.646,31.4783 74.646,30.6449 73.5,30C 74.1667,29.6667 74.8333,29.3333 75.5,29C 74.4844,28.4806 73.8178,27.6473 73.5,26.5C 74.8333,24.8333 76.1667,23.1667 77.5,21.5C 77.3918,20.5581 77.0585,19.7247 76.5,19C 80.1703,18.7208 83.837,18.8875 87.5,19.5 Z"/></g>
<g><path style="opacity:1" fill="#cce4f2" d="M 33.5,34.5 C 32.4726,36.1942 31.1392,37.5275 29.5,38.5C 28.391,38.5569 27.391,38.8902 26.5,39.5C 16.3764,39.0321 12.043,33.6987 13.5,23.5C 17.793,17.4307 23.4596,15.9307 30.5,19C 35.8113,23.3503 36.8113,28.517 33.5,34.5 Z"/></g>
<g><path style="opacity:1" fill="#1789ed" d="M 21.5,18.5 C 30.4238,18.3534 34.2571,22.6868 33,31.5C 30.3674,36.7315 26.2008,38.5649 20.5,37C 18.3333,36.1667 16.8333,34.6667 16,32.5C 14.0248,26.1772 15.8582,21.5105 21.5,18.5 Z"/></g>
<g><path style="opacity:1" fill="#1a7cd7" d="M 10.5,22.5 C 10.3354,25.5184 10.502,28.5184 11,31.5C 10.9467,28.3248 11.78,25.6581 13.5,23.5C 12.043,33.6987 16.3764,39.0321 26.5,39.5C 23.3046,40.236 19.9713,40.9027 16.5,41.5C 15.4206,39.457 13.754,38.1237 11.5,37.5C 10.2901,51.7241 10.2901,65.7241 11.5,79.5C 10.71,78.3915 10.21,77.0581 10,75.5C 9.17141,57.6619 9.33807,39.9952 10.5,22.5 Z"/></g>
<g><path style="opacity:1" fill="#1186ed" d="M 26.5,39.5 C 27.391,38.8902 28.391,38.5569 29.5,38.5C 31.9726,38.0882 33.3059,39.0882 33.5,41.5C 28.5514,47.9922 29.8847,52.8256 37.5,56C 39.5,56.3333 41.5,56.6667 43.5,57C 46.3707,59.8402 46.0374,62.1735 42.5,64C 38.6284,64.8912 34.9618,64.3912 31.5,62.5C 29.8987,63.0347 29.3987,64.0347 30,65.5C 34.0641,68.2898 38.5641,69.1231 43.5,68C 46.1459,67.1959 48.1459,65.6959 49.5,63.5C 50.2644,61.2603 51.0977,58.9269 52,56.5C 52.1739,51.3165 52.6739,46.3165 53.5,41.5C 53.3338,47.8421 53.5005,54.1754 54,60.5C 57.1953,68.5055 62.6953,70.5055 70.5,66.5C 71.925,67.922 72.925,69.5887 73.5,71.5C 70.5962,73.0551 67.9295,75.0551 65.5,77.5C 50.2468,66.9939 36.2468,68.4939 23.5,82C 21.1401,83.1799 18.8068,84.3466 16.5,85.5C 14.1097,84.1092 12.4431,82.1092 11.5,79.5C 10.2901,65.7241 10.2901,51.7241 11.5,37.5C 13.754,38.1237 15.4206,39.457 16.5,41.5C 19.9713,40.9027 23.3046,40.236 26.5,39.5 Z"/></g>
<g><path style="opacity:1" fill="#eef4fa" d="M 20.5,43.5 C 22.3019,50.0952 23.1353,57.0952 23,64.5C 24.6667,62.8333 26.3333,61.1667 28,59.5C 27.6066,63.4128 25.4399,66.0794 21.5,67.5C 17.5601,66.0794 15.3934,63.4128 15,59.5C 16.6667,61.1667 18.3333,62.8333 20,64.5C 20.4996,57.5079 20.6663,50.5079 20.5,43.5 Z"/></g>
<g><path style="opacity:1" fill="#daebf5" d="M 58.5,40.5 C 58.3337,47.8409 58.5003,55.1742 59,62.5C 61.1529,64.4439 63.6529,64.9439 66.5,64C 68.4257,63.5776 69.4257,62.4109 69.5,60.5C 70.4907,54.021 70.824,47.3543 70.5,40.5C 71.5,40.5 72.5,40.5 73.5,40.5C 73.5,47.5 73.5,54.5 73.5,61.5C 72.8897,63.4341 71.8897,65.1007 70.5,66.5C 62.6953,70.5055 57.1953,68.5055 54,60.5C 53.5005,54.1754 53.3338,47.8421 53.5,41.5C 54.9187,40.5489 56.5853,40.2155 58.5,40.5 Z"/></g>
<g><path style="opacity:1" fill="#84bee7" d="M 74.5,43.5 C 74.8229,49.69 74.4896,55.69 73.5,61.5C 73.5,54.5 73.5,47.5 73.5,40.5C 72.5,40.5 71.5,40.5 70.5,40.5C 70.824,47.3543 70.4907,54.021 69.5,60.5C 69.5,53.5 69.5,46.5 69.5,39.5C 71.1667,39.5 72.8333,39.5 74.5,39.5C 74.5,40.8333 74.5,42.1667 74.5,43.5 Z"/></g>
<g><path style="opacity:1" fill="#e1eef6" d="M 49.5,63.5 C 48.1459,65.6959 46.1459,67.1959 43.5,68C 38.5641,69.1231 34.0641,68.2898 30,65.5C 29.3987,64.0347 29.8987,63.0347 31.5,62.5C 34.9618,64.3912 38.6284,64.8912 42.5,64C 46.0374,62.1735 46.3707,59.8402 43.5,57C 41.5,56.6667 39.5,56.3333 37.5,56C 29.8847,52.8256 28.5514,47.9922 33.5,41.5C 38.8077,38.5665 43.8077,39.0665 48.5,43C 47.9535,43.9246 47.2868,44.7579 46.5,45.5C 43.3297,43.8047 39.9963,43.3047 36.5,44C 33.8333,46.3333 33.8333,48.6667 36.5,51C 39.1013,51.9203 41.7679,52.587 44.5,53C 48.9814,55.061 50.6481,58.561 49.5,63.5 Z"/></g>
<g><path style="opacity:1" fill="#9be4f1" d="M 65.5,77.5 C 60.9346,83.2886 54.9346,86.7886 47.5,88C 56.8274,88.4998 66.1607,88.6665 75.5,88.5C 58.0048,89.6619 40.3381,89.8286 22.5,89C 20.2726,88.059 18.2726,86.8923 16.5,85.5C 18.8068,84.3466 21.1401,83.1799 23.5,82C 36.2468,68.4939 50.2468,66.9939 65.5,77.5 Z"/></g>
<g><path style="opacity:1" fill="#eff7f7" d="M 73.5,71.5 C 79.2909,71.5634 84.2909,73.5634 88.5,77.5C 86.2943,83.7074 81.961,87.3741 75.5,88.5C 66.1607,88.6665 56.8274,88.4998 47.5,88C 54.9346,86.7886 60.9346,83.2886 65.5,77.5C 67.9295,75.0551 70.5962,73.0551 73.5,71.5 Z"/></g>
</svg>
